Coordinates
version=1
nRows=21
nColumns=12
inDegrees=yes

Units are S.I. units (second, meters, Newtons, ...)
Angles are in degrees

endheader
time	SC_y	SC_z	SC_x	AC_y	AC_z	AC_x	GH_y	GH_z	GH_yy	EL_x	PS_y
       0.0              -48.47          15.39          31.34          45.19          6.916          11.06         -51.36          17.99         -177.6          133.1          7.928
   0.00953              -48.47          15.39          31.35          45.19          6.915          11.06         -51.36          17.99         -177.6          133.1          7.932
   0.01906              -48.46          15.39          31.36          45.19          6.914          11.06         -51.36           18.0         -177.6          133.1          7.935
   0.02859              -48.46          15.39          31.36          45.19          6.912          11.06         -51.36           18.0         -177.6          133.1          7.939
   0.03812              -48.46          15.39          31.37          45.18          6.911          11.06         -51.36           18.0         -177.6          133.1          7.944
   0.04765              -48.46          15.39          31.38          45.18          6.909          11.05         -51.37           18.0         -177.6          133.1          7.948
   0.05718              -48.46          15.38          31.39          45.18          6.908          11.05         -51.37           18.0         -177.6          133.1          7.953
   0.06671              -48.46          15.38           31.4          45.18          6.906          11.05         -51.37           18.0         -177.6          133.1          7.958
   0.07624              -48.45          15.38          31.41          45.17          6.904          11.04         -51.37           18.0         -177.6          133.1          7.964
   0.08577              -48.45          15.38          31.42          45.17          6.902          11.04         -51.38          18.01         -177.6          133.1           7.97
    0.0953              -48.45          15.38          31.43          45.16            6.9          11.04         -51.38          18.01         -177.6          133.1          7.976
    0.1048              -48.45          15.37          31.44          45.16          6.898          11.03         -51.38          18.01         -177.6          133.1          7.983
    0.1144              -48.44          15.37          31.45          45.16          6.895          11.03         -51.39          18.01         -177.6          133.1           7.99
    0.1239              -48.44          15.37          31.47          45.15          6.892          11.02         -51.39          18.01         -177.6          133.1          7.998
    0.1334              -48.44          15.37          31.48          45.15          6.889          11.02          -51.4          18.02         -177.6          133.1          8.007
     0.143              -48.43          15.36           31.5          45.14          6.886          11.01          -51.4          18.02         -177.6          133.1          8.016
    0.1525              -48.43          15.36          31.51          45.13          6.883           11.0         -51.41          18.02         -177.6          133.1          8.026
     0.162              -48.42          15.35          31.53          45.13          6.879           11.0         -51.41          18.03         -177.6          133.1          8.037
    0.1715              -48.42          15.35          31.55          45.12          6.875          10.99         -51.42          18.03         -177.6          133.0          8.049
    0.1811              -48.41          15.35          31.58          45.11           6.87          10.98         -51.42          18.03         -177.6          133.0          8.063
    0.1906              -48.41          15.34           31.6           45.1          6.865          10.97         -51.43          18.04         -177.6          133.0          8.077
